<svg xmlns="http://www.w3.org/2000/svg" width="1200" height="750" viewBox="0 0 1200 750">
  <defs>
    <linearGradient id="sky" x1="0" y1="0" x2="0" y2="1">
      <stop offset="0%" stop-color="#0f1a2e"/>
      <stop offset="100%" stop-color="#1a2744"/>
    </linearGradient>
  </defs>
  <rect width="1200" height="750" fill="url(#sky)"/>
  <rect x="0" y="550" width="1200" height="200" fill="#2d4a25"/>
  <rect x="350" y="280" width="500" height="270" fill="#5E3B28"/>
  <polygon points="350,280 600,150 850,280" fill="#4a3020"/>
  <rect x="530" y="420" width="80" height="130" fill="#3d2518"/>
  <rect x="420" y="340" width="55" height="45" fill="#FFF4D1" opacity="0.6"/>
  <rect x="725" y="340" width="55" height="45" fill="#FFF4D1" opacity="0.6"/>
  <polyline points="350,280 400,280 420,300 460,280 500,280 520,295 560,280 600,280 640,295 680,280 720,280 750,300 800,280 850,280" fill="none" stroke="#FFF4D1" stroke-width="3"/>
  <polyline points="350,310 380,310 400,325 440,310 480,310 510,325 550,310 600,310 650,325 690,310 730,310 760,325 800,310 850,310" fill="none" stroke="#E6C27A" stroke-width="2.5"/>
  <circle cx="300" cy="480" r="30" fill="none" stroke="#FFF4D1" stroke-width="2"/>
  <circle cx="900" cy="480" r="30" fill="none" stroke="#FFF4D1" stroke-width="2"/>
  <circle cx="300" cy="480" r="4" fill="#FFF4D1"/><circle cx="290" cy="470" r="3" fill="#E6C27A"/>
  <circle cx="310" cy="490" r="3" fill="#FFF4D1"/><circle cx="295" cy="490" r="3" fill="#E6C27A"/>
  <circle cx="900" cy="480" r="4" fill="#FFF4D1"/><circle cx="890" cy="470" r="3" fill="#E6C27A"/>
  <circle cx="910" cy="490" r="3" fill="#FFF4D1"/>
  <text x="600" y="700" text-anchor="middle" fill="#FFF4D1" font-family="Georgia, serif" font-size="24" opacity="0.8">After  With Lights</text>
</svg>
